<mxfile host="app.diagrams.net" modified="2020-03-26T06:14:03.449Z" agent="Mozilla/5.0 (Macintosh; Intel Mac OS X 10_15_3) AppleWebKit/537.36 (KHTML, like Gecko) Chrome/80.0.3987.132 Safari/537.36" etag="FbV4fPGwQKy-ocBb5V_y" version="12.9.2" type="github">
  <diagram id="ndJ8UlHo1xQEcBVUiTzy" name="第 1 页">
    <mxGraphModel dx="618" dy="664" grid="1" gridSize="10" guides="1" tooltips="1" connect="1" arrows="1" fold="1" page="1" pageScale="1" pageWidth="827" pageHeight="1169" math="0" shadow="0">
      <root>
        <mxCell id="0" />
        <mxCell id="1" parent="0" />
        <mxCell id="S5EFejWPiIgzGz-rB_d--6" value="sendResult" style="edgeStyle=orthogonalEdgeStyle;rounded=0;orthogonalLoop=1;jettySize=auto;html=1;exitX=0.875;exitY=0.5;exitDx=0;exitDy=0;exitPerimeter=0;entryX=1;entryY=0.5;entryDx=0;entryDy=0;" edge="1" parent="1" source="S5EFejWPiIgzGz-rB_d--1" target="S5EFejWPiIgzGz-rB_d--3">
          <mxGeometry relative="1" as="geometry">
            <Array as="points">
              <mxPoint x="420" y="170" />
              <mxPoint x="420" y="360" />
            </Array>
          </mxGeometry>
        </mxCell>
        <mxCell id="S5EFejWPiIgzGz-rB_d--1" value="zeit" style="ellipse;shape=cloud;whiteSpace=wrap;html=1;fillColor=#333333;strokeColor=#666666;fontColor=#333333;gradientColor=#ffffff;gradientDirection=north;" vertex="1" parent="1">
          <mxGeometry x="250" y="130" width="120" height="80" as="geometry" />
        </mxCell>
        <mxCell id="S5EFejWPiIgzGz-rB_d--5" value="webhook" style="edgeStyle=orthogonalEdgeStyle;rounded=0;orthogonalLoop=1;jettySize=auto;html=1;exitX=0;exitY=0.5;exitDx=0;exitDy=0;entryX=0.07;entryY=0.4;entryDx=0;entryDy=0;entryPerimeter=0;endArrow=open;endFill=0;" edge="1" parent="1" source="S5EFejWPiIgzGz-rB_d--3" target="S5EFejWPiIgzGz-rB_d--1">
          <mxGeometry relative="1" as="geometry">
            <Array as="points">
              <mxPoint x="210" y="360" />
              <mxPoint x="210" y="162" />
            </Array>
          </mxGeometry>
        </mxCell>
        <mxCell id="S5EFejWPiIgzGz-rB_d--3" value="telegram bot" style="rounded=1;whiteSpace=wrap;html=1;fillColor=#dae8fc;strokeColor=#6c8ebf;comic=1;shadow=1;" vertex="1" parent="1">
          <mxGeometry x="250" y="330" width="120" height="60" as="geometry" />
        </mxCell>
      </root>
    </mxGraphModel>
  </diagram>
</mxfile>
